<svg width="129" height="30" viewBox="0 0 129 30" fill="none" xmlns="http://www.w3.org/2000/svg">
<path d="M55.9707 25.9315C55.7371 25.2043 55.4976 24.4892 55.2523 23.7801C55.0012 23.0709 54.7618 22.3498 54.534 21.6046H47.2807C47.0471 22.3498 46.8135 23.0769 46.5741 23.7921C46.3347 24.5072 46.0952 25.2224 45.8675 25.9315H42.6204C43.2628 23.9663 43.876 22.1514 44.4542 20.4928C45.0323 18.8281 45.5988 17.2536 46.1478 15.7692C46.7026 14.2849 47.2515 12.8666 47.7947 11.5204C48.3378 10.1743 48.8984 8.85216 49.4766 7.54207H52.455C53.0331 8.85216 53.5938 10.1803 54.1369 11.5204C54.68 12.8666 55.229 14.2788 55.7838 15.7692C56.3386 17.2536 56.9051 18.8281 57.4949 20.4928C58.0789 22.1575 58.698 23.9724 59.3404 25.9315H55.9707ZM50.9074 11.0938C50.5278 12.0313 50.0956 13.1731 49.6051 14.5192C49.1203 15.8654 48.6123 17.3257 48.0808 18.9002H53.7281C53.1967 17.3257 52.6886 15.8594 52.1922 14.4952C51.6958 13.131 51.2695 12.0012 50.9015 11.0998" fill="#FF2D85"/>
<path d="M60.3448 12.506C60.923 12.3317 61.6764 12.1635 62.5991 12.0012C63.5218 11.845 64.5496 11.7608 65.6709 11.7608C66.728 11.7608 67.6098 11.9171 68.3223 12.2236C69.0348 12.5361 69.5954 12.9688 70.0217 13.5216C70.4422 14.0805 70.7401 14.7536 70.9153 15.5409C71.0905 16.3281 71.1781 17.1935 71.1781 18.131V25.9315H68.1821V18.6358C68.1821 17.8906 68.1354 17.2596 68.0478 16.7368C67.9544 16.2139 67.8084 15.7933 67.604 15.4627C67.3996 15.1382 67.1192 14.8978 66.763 14.7476C66.4068 14.5974 65.9746 14.5192 65.4607 14.5192C65.0811 14.5192 64.684 14.5433 64.2693 14.5974C63.8547 14.6514 63.551 14.6935 63.3524 14.7296V25.9315H60.3565V12.5L60.3448 12.506Z" fill="#FF2D85"/>
<path d="M77.9817 11.7067C78.9745 11.7067 79.8038 11.8389 80.4812 12.1034C81.1586 12.3678 81.7018 12.7404 82.1047 13.2152C82.5077 13.6899 82.7997 14.2728 82.9691 14.9519C83.1443 15.631 83.2318 16.3822 83.2318 17.1935V25.607C82.7705 25.7152 82.0697 25.8414 81.1411 25.9916C80.2067 26.1418 79.1555 26.22 77.9817 26.22C77.205 26.22 76.4983 26.1418 75.8501 25.9796C75.2077 25.8233 74.6587 25.5649 74.2032 25.2103C73.7477 24.8558 73.3914 24.399 73.1403 23.8281C72.8833 23.2632 72.7549 22.5661 72.7549 21.7308C72.7549 20.8954 72.9009 20.2644 73.187 19.7115C73.4732 19.1647 73.8703 18.7139 74.3609 18.3714C74.8573 18.0289 75.4296 17.7764 76.0837 17.6262C76.7378 17.476 77.4152 17.3978 78.1277 17.3978C78.4547 17.3978 78.8051 17.4219 79.1672 17.4639C79.5293 17.506 79.9206 17.5841 80.3294 17.6923V17.1635C80.3294 16.7909 80.2885 16.4363 80.2067 16.0998C80.125 15.7632 79.979 15.4688 79.7746 15.2103C79.5702 14.9519 79.2957 14.7536 78.957 14.6154C78.6182 14.4712 78.1919 14.4051 77.6838 14.4051C76.9889 14.4051 76.3523 14.4591 75.7742 14.5613C75.196 14.6695 74.723 14.7897 74.3609 14.9339L73.9871 12.3317C74.3667 12.1875 74.9215 12.0493 75.6457 11.9051C76.3698 11.7608 77.1466 11.6947 77.9758 11.6947M78.2211 23.6659C79.1438 23.6659 79.8446 23.6118 80.3294 23.5096V19.9519C80.1658 19.8978 79.9264 19.8438 79.611 19.7957C79.2957 19.7416 78.9511 19.7176 78.5715 19.7176C78.2386 19.7176 77.9058 19.7416 77.567 19.7957C77.2283 19.8498 76.9246 19.9459 76.6502 20.0902C76.3757 20.2344 76.1596 20.4327 75.9961 20.6851C75.8326 20.9435 75.7508 21.262 75.7508 21.6527C75.7508 22.4159 75.9727 22.9387 76.4166 23.2332C76.8604 23.5277 77.4678 23.6719 78.227 23.6719" fill="#FF2D85"/>
<path d="M89.5916 26.2019C88.6981 26.1839 87.9623 26.0757 87.3724 25.8834C86.7884 25.6911 86.3212 25.4087 85.9708 25.0481C85.6263 24.6875 85.381 24.2368 85.2408 23.6959C85.1007 23.1551 85.0306 22.5421 85.0306 21.851V5.8714L88.0265 5.34255V21.238C88.0265 21.6286 88.0557 21.9531 88.1141 22.2176C88.1725 22.482 88.2776 22.7103 88.4236 22.8966C88.5696 23.0829 88.774 23.2272 89.031 23.3233C89.2879 23.4195 89.615 23.4976 90.0121 23.5517L89.5916 26.2079V26.2019Z" fill="#FF2D85"/>
<path d="M95.0637 7.99279C95.0637 8.59375 94.8827 9.07452 94.5206 9.42308C94.1585 9.77765 93.7263 9.95193 93.2299 9.95193C92.7335 9.95193 92.278 9.77765 91.9159 9.42308C91.5539 9.06851 91.3728 8.59375 91.3728 7.99279C91.3728 7.39183 91.5539 6.88702 91.9159 6.53245C92.278 6.17789 92.716 6.00361 93.2299 6.00361C93.7439 6.00361 94.1527 6.17789 94.5206 6.53245C94.8827 6.88702 95.0637 7.3738 95.0637 7.99279ZM94.7425 25.9315H91.7466V12.0493H94.7425V25.9315Z" fill="#FF2D85"/>
<path d="M106.773 7.99279C106.773 8.59375 106.592 9.07452 106.23 9.42308C105.868 9.77765 105.436 9.95193 104.939 9.95193C104.443 9.95193 103.987 9.77765 103.625 9.42308C103.263 9.06851 103.082 8.59375 103.082 7.99279C103.082 7.39183 103.263 6.88702 103.625 6.53245C103.987 6.17789 104.425 6.00361 104.939 6.00361C105.453 6.00361 105.862 6.17789 106.23 6.53245C106.592 6.88702 106.773 7.3738 106.773 7.99279ZM106.452 25.9315H103.456V12.0493H106.452V25.9315Z" fill="#FF2D85"/>
<path d="M107.941 19.0084C107.941 17.9808 108.087 17.0252 108.385 16.1298C108.683 15.2344 109.109 14.4651 109.658 13.8101C110.213 13.1551 110.884 12.6442 111.679 12.2716C112.473 11.899 113.36 11.7127 114.353 11.7127C115.574 11.7127 116.73 11.9531 117.822 12.4279L117.18 15.0541C116.835 14.8978 116.438 14.7596 116.006 14.6575C115.568 14.5493 115.101 14.5012 114.604 14.5012C113.431 14.5012 112.537 14.8978 111.93 15.6791C111.316 16.4664 111.013 17.5781 111.013 19.0084C111.013 20.4387 111.299 21.4784 111.877 22.2837C112.455 23.0889 113.431 23.4916 114.797 23.4916C115.311 23.4916 115.813 23.4375 116.31 23.3353C116.806 23.2272 117.232 23.095 117.6 22.9387L118.021 25.595C117.688 25.7692 117.192 25.9315 116.52 26.0697C115.848 26.2139 115.159 26.2801 114.453 26.2801C113.349 26.2801 112.385 26.0998 111.568 25.7392C110.75 25.3786 110.073 24.8738 109.535 24.2248C108.998 23.5817 108.595 22.8065 108.332 21.9171C108.069 21.0216 107.935 20.0541 107.935 19.0084" fill="#FF2D85"/>
<path d="M123.75 11.7067C124.743 11.7067 125.572 11.8389 126.249 12.1034C126.927 12.3678 127.47 12.7404 127.873 13.2152C128.276 13.6899 128.568 14.2728 128.737 14.9519C128.912 15.631 129 16.3822 129 17.1935V25.607C128.539 25.7152 127.838 25.8414 126.909 25.9916C125.975 26.1418 124.924 26.22 123.75 26.22C122.973 26.22 122.266 26.1418 121.618 25.9796C120.976 25.8233 120.427 25.5649 119.971 25.2103C119.516 24.8558 119.16 24.399 118.908 23.8281C118.652 23.2632 118.523 22.5661 118.523 21.7308C118.523 20.8954 118.669 20.2644 118.955 19.7115C119.241 19.1647 119.638 18.7139 120.129 18.3714C120.625 18.0289 121.198 17.7764 121.852 17.6262C122.506 17.476 123.183 17.3978 123.896 17.3978C124.223 17.3978 124.573 17.4219 124.935 17.4639C125.297 17.506 125.689 17.5841 126.098 17.6923V17.1635C126.098 16.7909 126.057 16.4363 125.975 16.0998C125.893 15.7632 125.747 15.4688 125.543 15.2103C125.338 14.9519 125.064 14.7536 124.725 14.6154C124.386 14.4712 123.96 14.4051 123.452 14.4051C122.757 14.4051 122.12 14.4591 121.542 14.5613C120.964 14.6695 120.491 14.7897 120.129 14.9339L119.755 12.3317C120.135 12.1875 120.69 12.0493 121.414 11.9051C122.138 11.7608 122.915 11.6947 123.744 11.6947M123.989 23.6659C124.912 23.6659 125.613 23.6118 126.098 23.5096V19.9519C125.934 19.8978 125.695 19.8438 125.379 19.7957C125.064 19.7416 124.719 19.7176 124.34 19.7176C124.007 19.7176 123.674 19.7416 123.335 19.7957C122.996 19.8498 122.693 19.9459 122.418 20.0902C122.144 20.2344 121.928 20.4327 121.764 20.6851C121.601 20.9435 121.519 21.262 121.519 21.6527C121.519 22.4159 121.741 22.9387 122.185 23.2332C122.629 23.5277 123.236 23.6719 123.995 23.6719" fill="#FF2D85"/>
<path d="M101.313 26.2019C100.419 26.1839 99.6831 26.0757 99.0933 25.8834C98.5093 25.6911 98.0421 25.4087 97.6917 25.0481C97.3471 24.6875 97.1019 24.2368 96.9617 23.6959C96.8215 23.1551 96.7515 22.5421 96.7515 21.851V5.8714L99.7474 5.34255V21.238C99.7474 21.6286 99.7766 21.9531 99.835 22.2176C99.8934 22.482 99.9985 22.7103 100.145 22.8966C100.291 23.0829 100.495 23.2272 100.752 23.3233C101.009 23.4195 101.336 23.4976 101.733 23.5517L101.313 26.2079V26.2019Z" fill="#FF2D85"/>
<path d="M101.313 12.0553H96.7573V15.1382H101.313V12.0553Z" fill="#FF2D85"/>
<path d="M11.4581 5.34255C13.2568 5.41467 14.9446 6.16587 16.2236 7.48798L23.2257 14.6935C23.4593 14.9339 23.7338 15.1322 24.0492 15.2344C24.8142 15.4748 25.5851 15.2704 26.1165 14.7296L30.006 10.7272C30.187 10.5409 30.187 10.2404 30.006 10.0481L21.8767 1.68269C20.7904 0.564906 19.3655 0.00601196 17.9405 0.00601196C16.5156 0.00601196 15.0906 0.564906 14.0043 1.68269L11.0843 4.6875C11.0843 4.6875 10.9033 4.86178 10.9442 5.04207C11.0084 5.33053 11.3763 5.34255 11.4698 5.34255H11.4581Z" fill="#FF2D85"/>
<path d="M33.9188 14.0745L31.7638 11.857C31.5828 11.6707 31.2849 11.6707 31.1039 11.857L27.2144 15.8594C26.5136 16.5805 25.5968 16.9411 24.6857 16.9411C23.7747 16.9411 22.852 16.5805 22.157 15.8594L15.1256 8.6238C14.0394 7.50601 12.6144 6.94712 11.1895 6.94712C9.7645 6.94712 8.33954 7.50601 7.25329 8.6238L6.96129 8.92428L1.62936 14.4051C-0.53728 16.6346 -0.54312 20.2524 1.61768 22.494L4.10553 25.0781C4.28657 25.2644 4.58441 25.2644 4.76545 25.0781L8.6549 21.0757C9.3557 20.3546 10.2726 19.994 11.1836 19.994C12.0947 19.994 13.0174 20.3546 13.7123 21.0757L17.9288 25.4147L20.7437 28.3113C21.0182 28.5938 21.3102 28.8341 21.6197 29.0445C21.7716 29.1466 21.9351 29.2428 22.0928 29.3329C22.414 29.5072 22.7527 29.6454 23.0972 29.7536C23.6112 29.9099 24.1484 29.988 24.6857 29.988C26.1107 29.988 27.5357 29.4291 28.6219 28.3113L33.9188 22.8606C36.2723 20.4387 36.2723 16.5084 33.9188 14.0805V14.0745Z" fill="#FF2D85"/>
<path d="M16.1009 25.7993L12.6436 22.2416C12.41 22.0012 12.1355 21.7969 11.8202 21.7007C11.0551 21.4603 10.2843 21.6647 9.75282 22.2055L5.86337 26.2079C5.68233 26.3942 5.68233 26.7007 5.86337 26.893L7.2533 28.3233C9.43162 30.5649 12.9707 30.5589 15.1431 28.3053L16.498 26.899C16.6791 26.7127 16.6791 26.4063 16.498 26.22L16.0951 25.8053L16.1009 25.7993Z" fill="#FF2D85"/>
</svg>
